<svg width="32" height="32" viewBox="0 0 32 32" fill="none" xmlns="http://www.w3.org/2000/svg">
<g clip-path="url(#clip0_25_168)">
<rect width="32" height="32" fill="black"/>
<rect width="32" height="32" fill="black"/>
<path fill-rule="evenodd" clip-rule="evenodd" d="M16.6957 10.9871C16.6957 8.60472 18.6301 6.67035 21.0125 6.67035C23.3948 6.67035 25.3292 8.60472 25.3292 10.9871C25.3292 13.3694 23.3948 15.3038 21.0125 15.3038H19.2025V16.6963H21.0125C24.1639 16.6963 26.7217 14.1385 26.7217 10.9871C26.7217 7.83567 24.1639 5.27786 21.0125 5.27786C17.8611 5.27786 15.3033 7.83566 15.3033 10.9871V12.7973H16.6957V10.9871ZM15.3042 19.2027H16.6967V21.013C16.6967 24.1644 14.1389 26.7222 10.9875 26.7222C7.83609 26.7222 5.27829 24.1644 5.27829 21.013C5.27829 17.8616 7.83609 15.3038 10.9875 15.3038H12.797V16.6962H10.9875C8.60514 16.6962 6.67078 18.6306 6.67078 21.013C6.67078 23.3953 8.60514 25.3297 10.9875 25.3297C13.3698 25.3297 15.3042 23.3953 15.3042 21.013V19.2027ZM17.2528 16.0001C17.2528 16.6923 16.6917 17.2534 15.9995 17.2534C15.3074 17.2534 14.7463 16.6923 14.7463 16.0001C14.7463 15.308 15.3074 14.7469 15.9995 14.7469C16.6917 14.7469 17.2528 15.308 17.2528 16.0001Z" fill="#FFFDF9"/>
<path d="M14.6228 15.9871C14.6228 16.7852 15.2149 17.403 16.013 17.403C16.7595 17.403 17.3774 16.7852 17.3774 15.9871C17.3774 15.2149 16.7595 14.597 16.013 14.597C15.2149 14.597 14.6228 15.2149 14.6228 15.9871Z" fill="#FFFDF9"/>
</g>
<defs>
<clipPath id="clip0_25_168">
<rect width="32" height="32" fill="white"/>
</clipPath>
</defs>
</svg>
