<svg xmlns="http://www.w3.org/2000/svg" version="1.1" viewBox="-5.0 -10.0 110.0 135.0">
 <path d="m94.277 62.121c0-1.0234-0.82812-1.8516-1.8516-1.8516h-1.8086l-4.2383-30.379c3.1562-1.293 5.9844-4.3164 6.8867-7.7305 2.0703-7.6445 0.14844-16.625 0.070313-17.004-0.16406-0.75-0.77734-1.3242-1.5391-1.4375-0.76953-0.11328-1.5117 0.25391-1.8906 0.92969-1.2148 2.1758-3.0859 2.6406-6.293 3.2773-3.75 0.74219-8.3945 1.6758-11.883 7.3398-1.9336-1.2656-3.9648-1.6758-5.6719-2.0117-2.3008-0.45703-3.5391-0.75781-4.3398-2.1875-0.375-0.67188-1.1289-1.0391-1.8906-0.92969-0.76172 0.11328-1.375 0.68359-1.5391 1.4336-0.0625 0.28516-1.5078 7.043 0.054688 12.805 0.42188 1.5977 1.1016 2.9023 1.9727 3.9766-0.007812 0.035157-0.027344 0.0625-0.035156 0.097657l-3.2578 23.352-3.5-4.9023c-0.34766-0.48828-0.91016-0.77734-1.5078-0.77734h-6.0586c-1.0234 0-1.8516 0.82812-1.8516 1.8516v12.289h-8.8086l-0.10547-1.0078 3.0664-29.633h11.359l1.0703 10.359c0.10547 1.0156 1.0039 1.7734 2.0352 1.6523 1.0156-0.10547 1.7578-1.0156 1.6523-2.0352l-3.543-34.242c-0.097656-0.94531-0.89453-1.6602-1.8438-1.6602h-10.102c-0.94922 0-1.7461 0.71484-1.8438 1.6602l-3.7148 35.898-3.707-35.891c-0.097656-0.94531-0.89453-1.6602-1.8438-1.6602h-10.102c-0.94922 0-1.7461 0.71484-1.8438 1.6602l-3.7227 35.996c-1.1953 1.7852-2.1797 3.9062-2.3164 6.125-2.3711-0.22656-4.25-0.070313-4.3516-0.0625-0.89453 0.078125-1.6055 0.78516-1.6797 1.6836-0.070313 0.81641-0.54688 7.5312 2.4609 11.77-0.30469 0.32812-0.5 0.76562-0.5 1.25v24.172c-1.2617 1.5352-2.0195 3.4648-2.0195 5.5195v2.6328c0 1.0234 0.82812 1.8516 1.8516 1.8516h88.891c1.0234 0 1.8516-0.82812 1.8516-1.8516v-2.6328c0-2.0508-0.75391-3.9844-2.0195-5.5156zm-55.633-36.195 0.66016-6.3984h9.2695l0.66016 6.3984h-10.594zm8.6758-18.52 0.87109 8.418h-8.5l0.87109-8.418h6.7617zm16.414 23.156h13.566 0.003907 0.003906 5.4219l0.76172 5.4648h-20.523l0.76172-5.4648zm10.965-13.062c2.668-4.5625 6.0508-5.2344 9.6328-5.9414 1.9648-0.39062 4.0898-0.80859 5.9258-1.9961 0.33203 3.0859 0.50781 7.6445-0.57031 11.641-0.76953 2.9062-3.9297 5.6523-6.5039 5.6523h-3.0859c2.3477-4.6055 6.3945-8.1133 6.4414-8.1562 0.77734-0.66406 0.86719-1.832 0.20313-2.6094-0.66406-0.77734-1.832-0.86719-2.6094-0.20703-0.10937 0.097657-1.3203 1.1367-2.8281 2.8281l-0.30078-1.0938c-0.26953-0.98828-1.2891-1.5664-2.2773-1.293-0.98437 0.27344-1.5664 1.293-1.293 2.2773l1.0312 3.7383c-0.92188 1.3633-1.7852 2.8867-2.4492 4.5156h-1.7461c-1.8867-4.4297-0.375-7.9805 0.42969-9.3555zm-13.254-1.7695c1.25 0.63281 2.6172 0.90234 3.8945 1.1562 1.7461 0.34375 3.4062 0.67188 4.8633 1.832-0.59766 2.0703-0.91406 4.9102 0.089844 8.1367h-6.2148c-1.0078-0.69922-1.7266-1.8086-2.1562-3.4375-0.69922-2.5781-0.66797-5.4961-0.48047-7.6875zm1.0078 23.996h21.559l2.8633 20.539h-1.5781l-9.5469-13.363c-0.34766-0.48828-0.91016-0.77734-1.5078-0.77734h-6.0586c-1.0234 0-1.8516 0.82812-1.8516 1.8516v12.289h-3.2539l-2.918-4.082 2.2969-16.457zm-14.645 10.102h3.2539l9.5469 13.363c0.34766 0.48828 0.91016 0.77734 1.5078 0.77734h6.0625c1.0234 0 1.8516-0.82812 1.8516-1.8516v-12.289h3.2539l9.5469 13.363c0.34766 0.48828 0.91016 0.77734 1.5078 0.77734h4.6523 0.003906 0.011718 1.5586v17.902c-0.42969-1.0859-1.0547-2.0859-1.8945-2.9297-1.2422-1.2461-2.8047-2.0508-4.5-2.3594v-6.3828c0-1.0234-0.82812-1.8516-1.8516-1.8516h-26.262c-1.0234 0-1.8516 0.82812-1.8516 1.8516v10.102c0 1.0234 0.82812 1.8516 1.8516 1.8516h18.449c-0.14062 0.39453-0.26953 0.78906-0.35156 1.207-3.9453 0.78516-6.9297 4.2773-6.9297 8.4492v0.78125h-19.414v-42.762zm29.262 28.621h-19.164v-6.3984h22.559v4.6797c-1.2617 0.32422-2.4258 0.90234-3.3945 1.7188zm-32.965 14.141h-11.336v-0.78125c0-4.1758-2.9844-7.6641-6.9297-8.4492-0.082032-0.41797-0.21094-0.81641-0.35156-1.207h12.387c1.0234 0 1.8516-0.82812 1.8516-1.8516v-10.102c0-1.0234-0.82812-1.8516-1.8516-1.8516h-22.223c-1.0234 0-1.8516 0.82812-1.8516 1.8516v7.0391c-0.90625 0.41797-1.7539 0.97656-2.4805 1.7031-0.84375 0.84375-1.4648 1.8477-1.8945 2.9336v-17.906h1.2148 0.011719 0.019531 33.434zm-21.184-14.141c-1.4688-1.2344-3.3555-1.9805-5.418-2.0078v-4.3867h18.52v6.3984h-13.102zm-9.457-30.473c0-1.4141 0.67969-2.9297 1.5781-4.3203 0.25-0.20312 0.41797-0.48047 0.53516-0.78906 0.68359-0.94141 1.4375-1.7891 2.0938-2.4609 1.7617 1.7969 4.2109 4.8789 4.2109 7.5664 0 1.8281-1.1523 3.3711-2.3555 4.4883v-2.4688c0-1.0234-0.82812-1.8516-1.8516-1.8516-1.0234 0-1.8516 0.82812-1.8516 1.8516v2.4609c-1.2031-1.1211-2.3555-2.6641-2.3555-4.4805zm14.555-22.055h-10.594l0.66016-6.3984h9.2695l0.66016 6.3984zm-8.4922 31.191c1.9648-1.2461 6.0547-4.4023 6.0547-9.1406 0-5.7188-6.0352-10.945-6.7227-11.52-0.6875-0.57812-1.6914-0.57422-2.3789 0-0.035157 0.03125-0.09375 0.082031-0.16016 0.13672l0.71875-6.9648h11.359l3.168 30.641h-8.8633c-1.7422 0-3.1523-1.4102-3.1797-3.1523zm6.5742-49.711 0.87109 8.418h-8.5l0.87109-8.418h6.7617zm-15.629 43.895c1.2617 2.918 3.8984 4.9062 5.3555 5.8281 0.007813 1.1406 0.31641 2.1992 0.81641 3.1445h-5.5625c-0.5-0.23438-0.9375-0.51562-1.3086-0.88672-1.8984-1.8984-2.3516-5.8047-2.375-8.3203 0.83984 0.007812 1.9297 0.066406 3.0703 0.23438zm-3.0664 41.297v-0.78125c0-2.2266 1.543-4.2344 3.7461-4.8828 0.78906-0.23047 1.332-0.95703 1.332-1.7773 0-1.3711 0.51562-2.6445 1.4609-3.5898 0.92188-0.92188 2.1445-1.4297 3.4492-1.4297 2.1641 0 3.9805 1.4141 4.6367 3.3555-1.4844 0.37891-2.8555 1.1172-3.9648 2.2266-0.72266 0.72266-0.72266 1.8945 0 2.6172 0.35938 0.35938 0.83594 0.54297 1.3086 0.54297s0.94922-0.17969 1.3086-0.54297c0.92969-0.92969 2.1602-1.4375 3.4727-1.4375 2.7109 0 4.9141 2.2031 4.9141 4.9102v0.78125l-21.664 0.003906zm85.184 0h-21.664v-0.78125c0-2.707 2.2031-4.9102 4.9141-4.9102 1.3125 0 2.5469 0.51172 3.4727 1.4375 0.35938 0.35938 0.83594 0.54297 1.3086 0.54297s0.94922-0.17969 1.3086-0.54297c0.72266-0.72266 0.72266-1.8945 0-2.6172-1.1094-1.1094-2.4805-1.8516-3.9648-2.2266 0.65625-1.9453 2.4727-3.3555 4.6367-3.3555 1.3047 0 2.5312 0.50781 3.4492 1.4297 0.94141 0.94531 1.4609 2.2188 1.4609 3.5898 0 0.82031 0.53906 1.5469 1.332 1.7812 2.207 0.64453 3.7461 2.6523 3.7461 4.8789v0.78125z"/>
<text x="0.0" y="117.5" font-size="5.0" font-weight="bold" font-family="Arbeit Regular, Helvetica, Arial-Unicode, Arial, Sans-serif" fill="#000000">Created by Gofficon</text><text x="0.0" y="122.5" font-size="5.0" font-weight="bold" font-family="Arbeit Regular, Helvetica, Arial-Unicode, Arial, Sans-serif" fill="#000000">from Noun Project</text></svg>