<svg xmlns="http://www.w3.org/2000/svg" viewBox="0 0 100 125" x="0px" y="0px"><g data-name="Layer 32 copy 11"><path d="M16.22,58.45l5,5.24a1.48,1.48,0,0,0,1.08.46,1.54,1.54,0,0,0,1-.41,1.5,1.5,0,0,0,.05-2.12l-1.27-1.34L19.3,57.34l2.35-2.89.15-.18.23,0h9.23l.22,0,.16.18L34,57.34l-2.8,2.94-1.27,1.34A1.49,1.49,0,0,0,30,63.74a1.51,1.51,0,0,0,2.12-.05l5-5.24a1.5,1.5,0,0,0,.07-2L34.31,53a4.23,4.23,0,0,0,1.23-3V45.36a4.28,4.28,0,0,0-4.12-4.26V25.75a10.79,10.79,0,0,0,3.61-3L59.5,25.16a11.27,11.27,0,0,0,1.15,1L58.79,48.52a6.39,6.39,0,0,0-6,6L51,82.27a3.8,3.8,0,0,0-3.62,3.79V95a1.5,1.5,0,0,0,1.5,1.5H88.29a1.5,1.5,0,0,0,1.5-1.5V86.06a3.8,3.8,0,0,0-3.62-3.79L84.45,54.49a6.39,6.39,0,0,0-6-6L76.57,26.19A12.74,12.74,0,1,0,59.5,7.34L35,9.71a10.64,10.64,0,1,0-13.16,16V41.1a4.28,4.28,0,0,0-4.12,4.26V50A4.26,4.26,0,0,0,19,53l-2.83,3.48A1.51,1.51,0,0,0,16.22,58.45Zm68.54,26.8H86a.81.81,0,0,1,.81.81V93.5H50.42V86.06a.81.81,0,0,1,.81-.81H84.76ZM77,51.5h1a3.4,3.4,0,0,1,3.38,3.18l1.7,27.57H54.05l1.71-27.57a3.39,3.39,0,0,1,3.38-3.18H77Zm-1.62-3H61.8l1.71-20.57a12.67,12.67,0,0,0,10.19,0Zm-6.81-42a9.75,9.75,0,1,1-9.75,9.75A9.76,9.76,0,0,1,68.61,6.5ZM57.2,10.58a12.67,12.67,0,0,0,0,11.34l-20.58-2a10.44,10.44,0,0,0,0-7.36ZM19,16.25a7.65,7.65,0,1,1,7.64,7.65A7.65,7.65,0,0,1,19,16.25ZM26.64,26.9a11.55,11.55,0,0,0,1.78-.16V41.08H24.87V26.74A11.53,11.53,0,0,0,26.64,26.9ZM20.75,45.36A1.28,1.28,0,0,1,22,44.08h9.23a1.29,1.29,0,0,1,1.28,1.28V50a1.29,1.29,0,0,1-1.28,1.28H22A1.28,1.28,0,0,1,20.75,50Zm-9,51.14H41.58a1.5,1.5,0,0,0,1.5-1.5V70.07a1.5,1.5,0,0,0-1.5-1.5H11.71a1.5,1.5,0,0,0-1.5,1.5V95A1.5,1.5,0,0,0,11.71,96.5ZM23.92,71.57h5.44v8.22H23.92Zm-10.71,0h7.71v9.72a1.5,1.5,0,0,0,1.5,1.5h8.44a1.5,1.5,0,0,0,1.5-1.5V71.57h7.72V93.5H13.21Zm48.65,6.3h13.5a1.5,1.5,0,0,0,1.5-1.5V57.6a1.5,1.5,0,0,0-1.5-1.5H61.86a1.5,1.5,0,0,0-1.5,1.5V76.37A1.5,1.5,0,0,0,61.86,77.87Zm1.5-18.77h10.5V74.87H63.36Zm8,3.49a1.5,1.5,0,0,1-1.5,1.5h-2.6a1.5,1.5,0,0,1,0-3h2.6A1.5,1.5,0,0,1,71.41,62.59Zm0,5a1.5,1.5,0,0,1-1.5,1.5h-2.6a1.5,1.5,0,0,1,0-3h2.6A1.5,1.5,0,0,1,71.41,67.58Z"/></g><text x="0" y="115" fill="#000000" font-size="5px" font-weight="bold" font-family="'Helvetica Neue', Helvetica, Arial-Unicode, Arial, Sans-serif">Created by iconnut</text><text x="0" y="120" fill="#000000" font-size="5px" font-weight="bold" font-family="'Helvetica Neue', Helvetica, Arial-Unicode, Arial, Sans-serif">from the Noun Project</text></svg>