<svg xmlns="http://www.w3.org/2000/svg" version="1.1" viewBox="-5.0 -10.0 110.0 135.0">
 <path d="m81.207 51.488c-1.2812 0-2.3203-1.0391-2.3203-2.3203s1.043-2.3203 2.3203-2.3203c1.2812 0 2.3203 1.043 2.3203 2.3203 0 1.2812-1.043 2.3203-2.3203 2.3203zm-17.016 18.773c-0.20312 0.027343-0.82422 0.10156-1.0664-1.4023l-1.9609-12.121c-0.09375-0.59375-0.59766-1.0352-1.1953-1.0547l-13.113-0.44141c-0.55469-0.015626-1.0547 0.32812-1.2305 0.85547-0.67188 2-1.2891 4.0156-1.875 6.0156-2.0391-0.39844-4.0742-0.99609-6.1133-1.7852 0.039062-2.9727-0.12109-7.0547 0.35938-9.4453 1.5156-7.543 4.0703-10.785 5.0664-18.648 0.10547-0.82422-0.60547-1.5117-1.4062-1.4023l-7.5625 0.97266c-0.48828 0.0625-0.89844 0.40625-1.0391 0.875l-3.3555 10.887c-0.53516 1.7383-1.8477 2.3594-2.4336 2.2148-0.52344-0.12891-0.35156-1.1914-0.31641-1.4023l2.2734-12.297c0.29297-1.5859 0.82422-2.4648 1.7266-2.8438l11.836-5.0156c7.0273-3.0547 11.328 2.7891 15.488 8.4414 0.79297 1.0781 1.543 2.0977 2.3086 3.0508 0.48438 0.60156 1.3906 0.62891 1.9062 0.058594l6.2305-6.8203c0.77734-0.85156 1.6055-1.2773 2.2188-1.1406 1.2344 0.27734 0.44141 2.2227 0 2.7891l-8.2109 10.539c-0.35547 0.45703-0.91797 0.69141-1.6602 0.69141-0.6875 0-1.2461-0.24609-1.7109-0.75391l-4.0977-4.4805c-0.66016-0.72266-1.8594-0.44141-2.1328 0.5-0.95703 3.3047-1.9688 6.6602-3.0078 9.9609-0.22266 0.71484 0.22656 1.4688 0.96094 1.6094l12.246 2.3633c1.3164 0.25391 1.8828 1.4844 1.9766 2.5508l1.1719 13.777c0.11328 1.3125-1.2109 2.7695-2.2812 2.9023zm-17.941-7.7539c4.3828 0.51563 8.7578 0.12891 13.113-1.168l-0.51562-3.1836-11.141-0.37109c-0.51172 1.5664-0.99219 3.1484-1.457 4.7227zm-3.9219 4.5625c0.23438-0.82812 0.46875-1.6602 0.70703-2.4961-1.8867-0.38281-3.6641-0.89062-5.4961-1.5625-0.070312 1.082-0.19141 2.0977-0.39062 2.9805-1.1367 4.9883-2.1055 10.988-3.3555 15.938-0.23438 0.93359-0.28906 2.4219 0.53516 2.6953l0.23828 0.078125c0.98047 0.32422 2.0469-0.17188 2.4336-1.1289 2.2344-5.5117 3.8086-11.102 5.3281-16.504zm12.516-51.867c-2.2656 0-4.1094 1.8438-4.1094 4.1094s1.8438 4.1094 4.1094 4.1094 4.1094-1.8398 4.1094-4.1094-1.8438-4.1094-4.1094-4.1094zm-36.051 36.285c-1.2812 0-2.3203-1.0391-2.3203-2.3203s1.0391-2.3203 2.3203-2.3203 2.3203 1.043 2.3203 2.3203c0.003907 1.2812-1.0391 2.3203-2.3203 2.3203zm71.719 6.1992c-2.7812-0.72656-4.7539-2.2148-6.2734-4.7617 1.0977-0.88672 1.7969-2.2422 1.7969-3.7578 0-2.6641-2.168-4.832-4.832-4.832-3.6016 0-5.9258 3.8125-4.3164 7.0039-2.9062 2.4414-5.832 4.5078-8.7344 6.168l-0.35547-4.1406c-0.21094-2.4883-1.7852-4.375-4.0039-4.8047l-10.859-2.0977c0.67188-2.1719 1.3359-4.3555 1.9766-6.5312l2.5938 2.8359c0.94531 1.0352 2.1758 1.5742 3.5781 1.5703 1.5117-0.003906 2.7969-0.58984 3.6289-1.6602l8.2148-10.535c0.72266-0.92578 1.5234-2.9297 1.0508-4.4883-0.77344-2.5352-4.1836-3.5938-7.1016-0.40234l-5.2305 5.7227c-1.8242-2.3984-3.4805-4.8672-5.6016-7.1562 3.082-0.5625 5.4258-3.2695 5.4258-6.5117 0-3.6523-2.9727-6.6211-6.6211-6.6211-4.3398 0-7.5078 4.1211-6.3984 8.3242-1.9766-0.38672-4.1758-0.17969-6.6484 0.89844l-11.824 5.0117c-2.5469 1.082-3.0508 3.8047-3.2188 4.6992l-2.2734 12.297c-0.48828 2.6562 0.87109 3.9766 2.1875 4.3008 1.8906 0.46484 4.5039-0.90234 5.4336-3.9141l3.1133-10.113 5.1172-0.66016c-1.0781 6.3594-3.3945 9.8438-4.8008 16.855-0.49219 2.4531-0.38672 5.8203-0.40234 8.8672-4.0195-1.875-8.0312-4.5078-12.027-7.8945 1.6328-3.1953-0.69531-7.0273-4.3047-7.0273-2.6641 0-4.832 2.168-4.832 4.832 0 1.4883 0.67578 2.8203 1.7383 3.7109-1.5508 2.5391-3.5156 4.043-6.2422 4.8164-0.66797 0.19141-1.0547 0.88281-0.86719 1.5508 0.19141 0.66797 0.88281 1.0547 1.5508 0.86719 3.1602-0.89453 5.5469-2.6406 7.3906-5.4375v26.684c0 0.69141 0.5625 1.2539 1.2578 1.2539 0.69141 0 1.2578-0.5625 1.2578-1.2539l-0.003907-27.52c0.49219-0.13281 0.94922-0.33984 1.3672-0.60938 4.5195 3.8438 9.0938 6.7852 13.664 8.793-0.054687 1.2812-0.16406 2.4609-0.37891 3.4102-1.1484 5.043-2.1016 10.969-3.3438 15.883-0.69531 2.7461 0.18359 5.0352 2.1797 5.6953 0.59375 0.19531 1 0.30078 1.6328 0.30078 1.7773 0 3.4609-1.0664 4.1562-2.7969 2.6641-6.582 4.3438-13.016 6.2031-19.535 4.7734 0.60938 9.5391 0.21484 14.234-1.1406l0.875 5.418c0.46484 2.8711 2.2969 3.6875 3.8555 3.4961 2.2695-0.28125 4.7188-2.793 4.4805-5.6055l-0.58984-6.8906c3.3867-1.8359 6.8008-4.1992 10.176-7.043 0.42188 0.27344 0.88672 0.48828 1.3828 0.62109v27.523c0 0.69141 0.5625 1.2539 1.2578 1.2539 0.69141 0 1.2578-0.5625 1.2578-1.2539v-26.531c1.8203 2.7578 4.2148 4.4609 7.418 5.2969 0.67188 0.17578 1.3555-0.22656 1.5312-0.89844 0.17578-0.67578-0.22656-1.3594-0.89844-1.5352z" fill-rule="evenodd"/>
<text x="0.0" y="117.5" font-size="5.0" font-weight="bold" font-family="Arbeit Regular, Helvetica, Arial-Unicode, Arial, Sans-serif" fill="#000000">Created by diyah farida</text><text x="0.0" y="122.5" font-size="5.0" font-weight="bold" font-family="Arbeit Regular, Helvetica, Arial-Unicode, Arial, Sans-serif" fill="#000000">from Noun Project</text></svg>